<svg xmlns="http://www.w3.org/2000/svg" width="128" height="128" viewBox="0 0 128 128">
  <defs>
    <linearGradient id="bg" x1="0" y1="0" x2="1" y2="1">
      <stop offset="0%" stop-color="#080B14"/>
      <stop offset="100%" stop-color="#0D1427"/>
    </linearGradient>
    <linearGradient id="shield" x1="0" y1="0" x2="1" y2="1">
      <stop offset="0%" stop-color="#00D9FF"/>
      <stop offset="100%" stop-color="#7C3AED"/>
    </linearGradient>
    <filter id="glow">
      <feGaussianBlur stdDeviation="3" result="blur"/>
      <feMerge><feMergeNode in="blur"/><feMergeNode in="SourceGraphic"/></feMerge>
    </filter>
  </defs>
  <rect width="128" height="128" rx="20" fill="url(#bg)"/>
  <path d="M64 16 L100 32 L100 68 C100 90 64 112 64 112 C64 112 28 90 28 68 L28 32 Z"
    fill="none" stroke="url(#shield)" stroke-width="3" opacity="0.6"/>
  <path d="M64 16 L100 32 L100 68 C100 90 64 112 64 112 C64 112 28 90 28 68 L28 32 Z"
    fill="url(#shield)" opacity="0.08"/>
  <!-- Inner diamond -->
  <path d="M64 30 L82 56 L64 96 L46 56 Z" fill="none" stroke="#00D9FF" stroke-width="1.5" opacity="0.8" filter="url(#glow)"/>
  <path d="M64 30 L82 56 L64 96 L46 56 Z" fill="#00D9FF" opacity="0.12"/>
  <path d="M46 56 L64 30 L64 96 Z" fill="#7C3AED" opacity="0.4"/>
  <path d="M82 56 L64 30 L64 96 Z" fill="#00D9FF" opacity="0.25"/>
  <!-- Center dot -->
  <circle cx="64" cy="56" r="4" fill="#00D9FF" opacity="0.9"/>
</svg>
